<svg width="1617" height="347" viewBox="0 0 1617 347" fill="none" xmlns="http://www.w3.org/2000/svg">
<g clip-path="url(#clip0_1722_330)">
<path d="M0.800003 155C0.800003 148.2 29.6 132.2 34.4 134.2C41.2 142.2 80 259 80.8 287.4C96.8 234.2 124.4 154.6 142.8 142.6C146 143 150.8 145.8 153.2 147.4C154.4 200.2 168.8 252.2 186.4 299.4C211.6 259.8 226.8 217.4 226.8 179.8C224.4 175 219.2 167 202 156.2C202 149.8 217.2 133.8 226.4 123.8C239.2 127.4 256 141 262 149.8C262 207.4 241.6 287.8 182.4 343.4C178 343.4 174 344.6 172 341C156.4 309 140.4 265.8 130 223.4C113.6 257 104.4 297 91.6 332.6C81.2 340.2 68 345.8 59.6 345.8C58 341.4 58 328.2 58 317.4C52.4 284.6 28.4 206.6 15.2 176.2C13.2 171.4 5.2 159.8 0.800003 155ZM346.847 231.8C377.247 156.2 397.647 137 409.247 136.2C414.847 135.8 429.647 135 445.247 135.4C449.247 136.2 456.847 143 456.047 145.4C448.447 183.8 435.247 219 435.247 258.6C435.247 271.8 464.047 303.8 474.047 314.2C472.447 318.2 455.247 342.6 451.247 342.6C446.047 342.6 408.047 300.2 408.047 271C408.047 255.4 417.647 194.6 426.847 169.4C393.247 169.4 354.047 256.6 350.047 283.8L344.447 323C344.447 328.6 320.047 344.2 315.647 343.8C313.247 337 319.247 188.2 307.647 59.4C307.647 52.2 298.447 39 292.047 31C292.047 26.2 316.047 2.59999 320.447 0.599992C325.647 0.599992 335.247 19 340.447 30.6L346.847 231.8ZM512.234 101.8C512.234 105.8 515.834 121.4 522.634 132.2C526.234 132.2 553.034 112.6 553.034 110.6C553.034 103 546.234 85.8 543.034 79.8C539.834 78.6 515.834 97.8 512.234 101.8ZM521.834 168.6C521.834 162.6 518.234 161 516.234 155.8C518.234 151.4 537.434 138.6 543.834 138.6C547.834 143.4 549.834 147.8 549.834 152.6L550.234 296.2C550.234 299 561.434 317.4 561.434 319.8C555.834 327 535.834 341.8 532.234 341.8C526.634 335.4 517.034 324.2 517.034 319L521.834 168.6ZM606.284 156.6C606.684 153 623.884 124.2 627.084 124.2C631.484 125.8 643.484 137 649.484 147.8C651.884 151 652.684 157.4 653.484 174.6C659.884 161 687.084 138.2 703.484 132.2C708.284 132.2 731.884 144.6 735.084 151V177.8C756.684 150.2 775.484 137 781.484 136.2C787.084 135.8 800.684 135 816.284 135.4C817.884 137 825.884 143.4 825.084 145.8C817.484 184.2 806.284 219 806.284 258.6C806.284 271.8 835.084 303.8 845.084 314.2C843.484 318.2 826.284 342.6 822.284 342.6C817.084 342.6 779.084 300.2 779.084 271C779.084 255.4 788.684 194.6 797.884 169.4C791.484 168.6 785.884 169 781.884 169.8C767.484 172.6 739.884 195 737.884 207.4L737.084 319C730.284 324.6 710.684 341.8 706.684 338.2L707.084 188.2C707.084 181 699.084 165.4 693.484 165.4C688.284 165.4 656.684 187.8 653.884 209.4L653.484 317.8C653.484 321.8 630.684 340.6 624.684 340.6C622.284 338.6 624.284 222.6 625.484 179C619.084 170.2 609.084 159.8 606.284 156.6ZM970.85 165.4C956.85 165.8 942.85 165.4 924.45 164.6C917.65 168.2 910.85 177.8 910.85 186.2C910.85 198.6 1003.25 229.8 1003.25 259C1003.25 293.8 959.65 334.6 941.25 341.4C930.45 341 901.25 317 882.05 297.8C877.65 293.4 871.25 291.4 871.25 289C871.25 286.2 875.65 279 884.85 266.6C886.85 266.2 888.85 266.2 890.85 267C909.25 284.2 922.45 300.2 945.25 313.4C957.25 303.4 971.25 291.4 972.05 275.4C974.45 251.4 914.45 233 890.05 213C885.65 209.4 886.05 195.4 886.45 190.2C890.85 171 908.05 151.4 926.05 137C947.65 137 961.65 135.8 983.25 135.8C985.65 137 988.45 140.2 987.65 142.2C984.45 150.6 976.45 159.8 970.85 165.4ZM1051.25 101.8C1051.25 105.8 1054.85 121.4 1061.65 132.2C1065.25 132.2 1092.05 112.6 1092.05 110.6C1092.05 103 1085.25 85.8 1082.05 79.8C1078.85 78.6 1054.85 97.8 1051.25 101.8ZM1060.85 168.6C1060.85 162.6 1057.25 161 1055.25 155.8C1057.25 151.4 1076.45 138.6 1082.85 138.6C1086.85 143.4 1088.85 147.8 1088.85 152.6L1089.25 296.2C1089.25 299 1100.45 317.4 1100.45 319.8C1094.85 327 1074.85 341.8 1071.25 341.8C1065.65 335.4 1056.05 324.2 1056.05 319L1060.85 168.6ZM1266.5 138.2C1266.5 144.2 1253.7 165 1250.1 165C1230.1 166.2 1221.7 166.2 1201.7 165C1190.5 183.8 1171.3 229 1171.3 243C1171.3 255.4 1195.3 293.8 1218.9 308.2C1232.5 299.4 1246.1 287.4 1255.3 274.2C1258.9 274.6 1268.1 279.8 1268.9 283C1256.1 305 1222.5 344.2 1213.7 344.2C1185.3 338.2 1138.9 271.4 1138.5 248.2C1138.1 231.8 1171.7 157.8 1196.5 137.8C1220.1 137.4 1252.9 135.8 1257.7 135.8C1262.5 135.8 1264.9 137 1266.5 138.2ZM1461.81 341.8C1450.21 331.4 1427.81 303.8 1417.81 284.6C1393.41 323.4 1373.41 345 1361.41 345C1331.41 333.4 1297.41 266.6 1297.81 248.2C1298.21 224.6 1323.81 174.2 1361.01 137C1366.61 134.2 1432.61 135 1440.21 135C1443.41 135 1451.01 145 1451.01 147.4C1451.01 157 1446.61 205.8 1433.41 249.4C1437.81 257 1469.41 297 1484.61 311.4C1484.61 317 1467.81 341.8 1461.81 341.8ZM1426.61 163C1403.01 165.4 1380.21 164.2 1365.41 163.4C1344.21 192.2 1329.01 231 1329.01 241.4C1329.01 261 1347.01 289 1367.01 306.2C1375.01 306.2 1416.61 247 1426.61 163ZM1517.79 334.6C1517.79 330.6 1526.19 317.8 1532.59 305.4C1528.19 260.6 1524.99 150.6 1524.19 67.4C1524.19 60.2 1514.99 47 1508.59 39C1508.59 34.2 1532.59 10.6 1536.99 8.59998C1542.19 8.59998 1551.79 27 1556.99 38.6C1558.99 127.4 1555.79 213.8 1557.79 302.6C1562.19 304.6 1586.59 302.2 1610.59 303C1612.19 303 1615.39 306.2 1616.59 307.8C1615.39 314.2 1604.59 335.8 1601.39 336.6L1522.19 337.8L1517.79 334.6Z" fill="white"/>
</g>
<defs>
<clipPath id="clip0_1722_330">
<rect width="1617" height="347" fill="white"/>
</clipPath>
</defs>
</svg>
