<svg width="607" height="135" viewBox="0 0 607 135" fill="none" xmlns="http://www.w3.org/2000/svg">
<path d="M188.321 62.115C184.829 74.8938 176.613 83.1745 167.473 83.3789C161.825 77.7563 157.409 68.351 157.409 61.1949V59.5592H185.753V55.5722C185.753 45.0424 181.338 36.2506 174.765 32.5703H169.322C157.409 32.5703 146.934 41.8733 146.934 55.5722C146.934 66.6131 150.323 76.2228 160.387 86.7526H164.598C176.819 86.7526 185.753 77.0406 188.937 62.115H188.321ZM157.409 56.799C157.409 47.7004 161.722 37.784 169.938 34.206C174.457 39.113 176.203 46.0647 176.1 56.799H157.409ZM217.487 82.4589L211.838 85.3213V85.9347H231.556V85.3213L226.113 82.4589L212.968 49.2339L218.514 40.442L229.708 33.8993V33.2859L219.13 33.7971L203.315 57.3101V0.265381H202.801L186.575 14.271L186.883 14.6799L190.169 12.6353C191.196 12.0219 191.915 11.7152 192.84 11.7152C193.558 11.7152 194.072 12.3286 194.072 13.3509V82.4589L187.807 85.3213V85.9347H208.449V85.3213L203.315 82.4589V62.9328L207.628 56.39L217.487 82.4589ZM9.21776 12.2264L9.01237 82.3566L0.796631 85.3213V85.9347H40.0268L48.2425 51.5852H47.6264L32.6326 82.97H20.8225V12.1241L28.2167 9.26168V8.6483H1.7209L1.8236 9.36391L9.21776 12.2264ZM249.425 82.4589V45.758L260.003 38.0907C263.084 41.2599 265.241 46.9848 265.241 53.8343V82.4589L260.106 85.3213V85.9347H279.618V85.3213L274.175 82.4589V53.8343C274.175 42.4867 272.84 37.8863 266.679 32.7747L249.425 40.6465V0.367612H248.809L230.94 14.3732L231.248 14.7821L236.588 12.7375C237.718 12.3286 238.232 11.8175 239.156 11.8175C239.977 11.8175 240.491 12.4308 240.491 13.4531V82.4589L233.918 85.3213V85.9347H255.587V85.3213L249.425 82.4589ZM552.689 44.838V82.4589L546.014 85.3213V85.9347H568.196V85.3213L561.521 82.4589V31.7524H561.007L546.424 44.7357L546.733 45.1447L548.786 43.9179C549.608 43.4067 550.635 42.9978 551.354 42.9978C552.278 42.9978 552.689 43.509 552.689 44.838ZM555.667 27.2543C558.953 27.2543 561.11 24.5963 561.11 21.0182C561.11 17.3379 558.953 14.6799 555.667 14.6799C552.792 14.6799 550.635 17.3379 550.635 21.0182C550.635 24.5963 552.792 27.2543 555.667 27.2543ZM578.363 57.5146C578.363 44.9402 582.574 37.0684 586.579 33.6948C593.357 38.7041 598.492 48.3138 598.492 59.9681C598.492 72.4403 594.487 80.312 590.481 83.8901C583.601 78.7786 578.363 69.2711 578.363 57.5146ZM528.453 77.5518V79.8009C528.453 84.5035 531.328 86.957 531.328 86.957L547.349 76.8362V76.2228L543.754 77.8585C542.111 78.5741 540.468 78.983 538.928 78.983C537.695 78.983 537.284 77.7563 537.284 75.9161V0.674304H536.771L520.545 14.6799L520.853 15.0888L524.139 13.0442C525.166 12.4308 525.885 12.1241 526.809 12.1241C527.528 12.1241 528.042 12.7375 528.042 13.7598V34.5127C525.782 32.9792 523.318 31.8547 518.08 31.8547C507.811 31.8547 500.211 42.8956 500.211 57.5146C500.211 69.3733 505.654 78.6763 512.432 86.957L528.453 77.5518ZM490.044 31.7524H489.53L474.948 44.7357L475.256 45.1447L477.31 43.9179C478.131 43.4067 479.158 42.9978 479.877 42.9978C480.801 42.9978 481.212 43.509 481.212 44.838L481.007 75.5072L470.223 78.983C468.58 76.8362 467.656 74.996 467.656 66.4086V31.7524H467.143L452.56 44.7357L452.868 45.1447L454.922 43.9179C455.743 43.4067 456.77 42.9978 457.489 42.9978C458.413 42.9978 458.824 43.509 458.824 44.838V71.1113C458.824 80.5165 461.392 83.8901 464.37 86.957L481.212 77.4496V79.8009C481.212 84.5035 484.088 86.957 484.088 86.957L500.108 76.8362V76.2228L496.514 77.8585C494.871 78.5741 493.228 78.983 491.687 78.983C490.455 78.983 490.044 77.7563 490.044 75.9161V31.7524ZM101.645 43.8157L101.953 107.914C101.953 110.368 101.439 111.186 100.31 111.186C99.2828 111.186 97.9478 110.47 96.8181 109.141L92.2994 103.723L91.9913 104.132L110.477 134.699H111.093V81.3343C114.893 84.9124 119.103 86.957 122.492 86.957C129.989 86.957 140.772 77.0406 140.772 57.8213C140.772 41.6688 132.557 35.7394 128.141 32.7747C121.773 33.0814 116.433 35.6372 110.888 38.9086L110.477 30.7301H109.963L95.3803 43.7134L95.6884 44.1224L97.7424 42.8956C98.5639 42.3844 99.5909 41.9755 100.31 41.9755C101.234 41.9755 101.645 42.4867 101.645 43.8157ZM312.892 44.6335V82.4589L307.038 85.3213V85.9347H326.962V85.3213L321.827 82.4589V46.167L332.404 38.0907C335.485 41.2599 337.642 46.9848 337.642 53.8343V82.4589L332.507 85.3213V85.9347H352.02V85.3213L346.577 82.4589V53.8343C346.577 42.4867 345.242 37.8863 339.08 32.7747L321.827 41.0554V31.548H321.313L306.73 44.5313L307.038 44.9402L309.092 43.7134C309.914 43.2023 310.941 42.7934 311.66 42.7934C312.584 42.7934 312.892 43.3045 312.892 44.6335ZM288.964 44.838V82.4589L282.288 85.3213V85.9347H304.471V85.3213L297.796 82.4589V31.7524H297.282L282.699 44.7357L283.007 45.1447L285.061 43.9179C285.883 43.4067 286.91 42.9978 287.629 42.9978C288.553 42.9978 288.964 43.509 288.964 44.838ZM93.6345 62.115C90.1428 74.8938 81.9271 83.1745 72.7871 83.3789C67.1387 77.7563 62.7228 68.351 62.7228 61.1949V59.5592H91.0671V55.5722C91.0671 45.0424 86.6511 36.2506 80.0785 32.5703H74.6356C62.7228 32.5703 52.2477 41.8733 52.2477 55.5722C52.2477 66.6131 55.6367 76.2228 65.701 86.7526H69.9115C82.1325 86.7526 91.0671 77.0406 94.2507 62.115H93.6345ZM588.325 86.0369C601.367 86.0369 606.502 69.4756 606.502 58.0257C606.502 46.9848 601.675 31.548 588.633 31.548C575.59 31.548 569.942 46.8826 569.942 58.5369C569.942 70.3956 575.796 86.0369 588.325 86.0369ZM528.144 75.7116L516.642 79.1875C513.664 75.8139 508.94 64.4663 508.632 56.5945C508.324 47.087 512.124 37.784 518.902 33.7971C523.112 35.0238 526.707 39.3175 528.144 42.5889V75.7116ZM433.766 86.5481C442.701 84.299 450.814 75.5072 451.841 67.1243H451.225C449.068 75.6094 442.701 80.4143 438.901 80.9254C437.258 78.4719 437.155 74.7916 437.155 68.5555V37.4774L439.312 37.6818C443.009 37.9885 445.782 39.522 446.09 44.1224H446.809V33.7971H437.155V23.574H428.015V33.7971H418.67V34.4104L428.015 36.7617V72.2358C428.015 79.1875 429.864 83.7879 433.766 86.5481ZM398.233 87.0592C409.119 86.8548 416.718 78.2674 416.718 69.8845C416.718 61.3993 411.789 53.9365 402.238 43.509L398.028 38.9086C392.482 32.877 389.607 28.2766 389.196 23.0628C388.785 17.5424 390.325 10.0795 396.59 10.0795C403.471 10.0795 409.016 18.3602 410.762 32.0591L411.789 40.2376H412.405L415.794 8.23938L414.87 8.03491L412.303 15.0888C408.4 9.36391 401.314 7.42153 396.487 7.42153C385.088 7.42153 379.748 16.5201 379.85 26.5387C379.953 34.3082 384.574 41.2599 389.915 46.6781L397.514 54.3454C404.292 61.1949 406.757 67.5332 406.757 73.9737C406.757 79.0853 402.444 84.5035 398.028 84.4013C390.942 84.299 385.396 76.4273 384.061 63.7506L382.829 52.403H382.212L378.002 77.2451C383.856 83.4812 389.093 87.2637 398.233 87.0592ZM292.045 27.2543C295.331 27.2543 297.385 24.5963 297.385 21.0182C297.385 17.3379 295.331 14.6799 292.045 14.6799C289.169 14.6799 287.012 17.3379 287.012 21.0182C287.012 24.5963 289.169 27.2543 292.045 27.2543ZM121.157 83.1745C115.817 80.6187 111.093 73.8715 111.093 64.4663V47.1893C113.147 44.1224 117.768 37.8863 122.698 36.1484C125.573 38.7041 131.632 44.7357 131.632 58.128C131.632 69.2711 126.087 81.0276 121.157 83.1745ZM63.4417 56.799C63.4417 47.7004 67.7549 37.784 75.9707 34.206C80.4893 39.113 82.2352 46.0647 82.1325 56.799H63.4417Z" fill="white"/>
</svg>
