<svg width="91" height="121" viewBox="0 0 91 121" fill="none" xmlns="http://www.w3.org/2000/svg">
<path d="M26.5088 2.74854C35.1115 5.48567 41.6135 16.941 42.9139 31.8432H43.5141L45.0146 8.42554C41.5135 4.06642 34.8114 0.112793 24.9083 0.112793C11.2039 0.112793 -0.0996168 14.0012 0.000414723 28.7005C0.100446 46.6439 6.10234 61.546 16.6057 78.3743H19.2065C33.2109 78.3743 45.2147 66.5134 47.1153 45.7315H46.5151C43.214 66.9189 31.0102 69.5547 23.908 69.7574C17.3059 58.6062 12.2043 41.4738 12.2043 30.9308C12.2043 14.9135 18.1061 5.38429 26.5088 2.74854ZM72.8234 74.522L68.1219 77.3605V77.9688H89.5286V77.3605L84.6271 74.522V4.97879L90.629 1.53204V0.923793H54.0175V1.53204L60.1194 4.97879C60.0193 35.7968 58.1187 59.3158 54.7177 73.0014C51.9168 84.3554 46.7151 96.5204 41.7136 100.373L28.9095 80.5032L28.4094 80.7059L42.2137 120.952C51.1165 106.962 54.4176 97.1287 57.9187 82.3279C61.2197 68.3382 64.1206 33.972 63.7205 3.25542H72.8234V74.522Z" fill="white"/>
</svg>
