<svg width="620" height="106" viewBox="0 0 620 106" fill="none" xmlns="http://www.w3.org/2000/svg">
<path d="M447.261 53.4853C443.801 66.1208 435.659 74.3086 426.601 74.5108C421.003 68.9512 416.627 59.6514 416.627 52.5755V50.9582H444.717V47.0159C444.717 36.6042 440.34 27.911 433.827 24.2719H428.433C416.627 24.2719 406.246 33.4706 406.246 47.0159C406.246 57.933 409.604 67.4349 419.578 77.8466H423.751C435.862 77.8466 444.717 68.2436 447.872 53.4853H447.261ZM416.627 48.2289C416.627 39.2324 420.901 29.4272 429.043 25.8893C433.521 30.7413 435.252 37.615 435.15 48.2289H416.627ZM367.266 28.7196V73.5L362.483 76.3303V76.9368H381.413V76.3303L376.426 73.5V27.7088H390.471V73.5L385.687 76.3303V76.9368H404.617V76.3303L399.631 73.5V28.7196L404.617 25.8893V25.2828H362.279V25.8893L367.266 28.7196ZM361.261 53.4853C357.801 66.1208 349.659 74.3086 340.601 74.5108C335.004 68.9512 330.627 59.6514 330.627 52.5755V50.9582H358.717V47.0159C358.717 36.6042 354.341 27.911 347.827 24.2719H342.433C330.627 24.2719 320.246 33.4706 320.246 47.0159C320.246 57.933 323.605 67.4349 333.579 77.8466H337.751C349.863 77.8466 358.717 68.2436 361.872 53.4853H361.261ZM330.627 48.2289C330.627 39.2324 334.902 29.4272 343.044 25.8893C347.522 30.7413 349.252 37.615 349.15 48.2289H330.627ZM584.352 69.2544C582.927 67.7382 582.113 66.1208 582.113 62.785C582.113 55.8102 588.626 45.0953 597.684 44.792V60.9655L584.352 69.2544ZM606.437 65.3121V38.727C606.437 31.7522 605.215 26.4958 601.857 23.8676H600.127C591.069 23.8676 578.856 31.9543 574.988 45.904H575.599C578.042 37.615 588.728 28.8207 594.936 28.2142C596.87 29.5283 597.582 32.6619 597.582 37.1096V42.7703C588.83 42.8714 574.378 52.9799 574.378 65.11C574.378 71.9837 576.617 74.814 578.754 77.4422L597.582 63.4926V70.3663C597.582 75.1173 600.534 77.4422 600.534 77.4422L619.362 63.0883L619.159 62.785L617.937 63.4926C613.256 66.4241 610.609 68.3447 608.065 68.3447C606.844 68.3447 606.437 67.1316 606.437 65.3121ZM534.686 28.8207V73.5L529.902 76.3303V76.9368H548.527V76.3303L543.54 73.5V51.1603H559.213V73.5L554.43 76.3303V76.9368H573.055V76.3303L568.068 73.5V28.8207L573.055 25.9904V25.3839H554.43V25.9904L559.213 28.8207V48.7343H543.54V28.8207L548.527 25.9904V25.3839H529.902V25.9904L534.686 28.8207ZM522.676 73.3989V24.0698H522.065L501.202 60.359V28.8207L507.206 25.9904V25.3839H487.462V25.9904L492.245 28.8207V79.3628H492.856L513.822 43.7812V73.3989L509.038 76.2292V76.8357H527.663V76.2292L522.676 73.3989ZM474.74 28.9218L467.311 46.005L458.456 28.9218L463.443 26.0914V25.4849H443.597V26.0914L448.889 29.0229L461.204 51.969L450.111 73.2978L443.699 76.3303V76.9368H459.474V76.3303L453.062 73.3989L462.833 54.5972L473.112 73.5L468.125 76.3303V76.9368H487.971V76.3303L482.78 73.2978L468.837 48.5321L477.692 28.9218L484.511 25.8893V25.2828H468.328V25.8893L474.74 28.9218ZM433.013 15.983C435.761 15.983 437.592 13.7592 437.592 10.8277C437.592 7.7952 435.761 5.67243 433.013 5.67243C430.774 5.67243 429.043 7.7952 429.043 10.8277C429.043 13.7592 430.774 15.983 433.013 15.983ZM420.393 15.983C422.937 15.983 424.667 13.7592 424.667 10.8277C424.667 7.7952 422.937 5.67243 420.393 5.67243C418.052 5.67243 416.118 7.7952 416.118 10.8277C416.118 13.7592 418.052 15.983 420.393 15.983ZM300.502 73.5L295.719 76.3303V76.9368H317.193V76.3303L312.206 73.5V4.15616L318.312 0.719298V0.112793H282.59V0.719298L288.798 4.15616C287.271 32.1565 283.811 64.3013 281.267 74.5108C277.603 89.2691 274.346 94.7276 270.58 94.7276C268.341 94.7276 267.629 92.706 267.222 90.2799L262.845 64.7056H262.235L263.761 105.847C275.465 105.847 280.758 94.9298 284.218 79.9693C287.475 66.0197 290.121 29.0229 292.258 2.13448H300.502V73.5ZM26.8297 2.74098C35.5823 5.47026 41.7906 16.2863 43.1136 31.7522H43.7243L44.4367 7.18869C40.7728 3.65074 35.1752 0.112793 25.5066 0.112793C11.5635 0.112793 -0.0388544 13.557 0.0629204 28.2142C0.164695 46.1061 5.45698 60.0557 16.0416 78.1498H18.6877C32.4273 78.1498 45.2509 66.9295 48.2024 45.6007H47.5917C43.5207 63.7959 31.5113 67.9403 24.4889 69.1533C17.7717 58.0341 12.1741 41.3552 12.1741 30.8424C12.1741 14.8711 18.2806 5.36917 26.8297 2.74098ZM240.048 28.7196L245.035 25.8893V25.2828H226.308C218.675 25.2828 209.617 27.8099 209.617 36.8064C209.617 44.4888 215.215 49.4419 221.728 52.1712C217.657 63.7959 211.958 77.139 199.643 88.2582L199.948 88.7637L218.268 78.2509L227.428 53.8896L231.193 55.0015V73.2978L226.41 76.1281V76.7346H245.035V76.1281L240.048 73.2978V28.7196ZM202.391 73.2978V23.9687H201.78L180.917 60.2579V28.7196L185.904 25.8893V25.2828H167.279V25.8893L172.062 28.7196V79.2617H172.673L193.537 43.7812V73.2978L188.753 76.1281V76.7346H207.378V76.1281L202.391 73.2978ZM159.849 28.7196L165.854 25.8893V25.2828H133.795V25.8893L138.782 28.7196V48.6332C138.782 57.0232 137.662 66.5251 132.675 74.5108H125.958L126.671 98.2656H127.281L134.507 76.8357H159.035L166.261 98.2656H166.872L167.584 74.5108H159.849V28.7196ZM125.144 28.8207L131.759 25.9904V25.3839H115.272V25.9904L121.887 28.8207L113.644 64.4024L103.568 28.3153L108.758 25.8893V25.2828H88.3016L88.4034 25.9904L94.1028 28.7196L109.369 79.4639C105.094 93.6157 101.023 94.6266 98.7844 94.6266C97.156 94.6266 96.24 91.8973 95.9347 90.4821L90.5407 64.6045H89.93L92.5761 105.746C103.975 105.746 108.555 93.7168 112.219 79.2617L125.144 28.8207ZM71.8141 32.0554C71.8141 28.8207 73.8496 27.8099 76.1904 27.8099C78.3277 27.8099 79.8543 29.6294 80.8721 31.4489L86.1643 41.4562H86.775L84.4342 25.3839H50.5432L48.2024 41.4562H48.813L54.1053 31.4489C55.1231 29.6294 56.6497 27.8099 58.7869 27.8099C61.1278 27.8099 63.1633 28.8207 63.1633 32.0554V73.5L56.5479 76.3303V76.9368H78.4295V76.3303L71.8141 73.5V32.0554ZM228.547 52.1712C221.321 49.9473 217.657 43.6801 217.657 38.0194C217.657 31.1457 221.016 27.0012 226.308 27.0012C228.751 27.0012 230.277 28.012 231.193 29.2251V52.9799L228.547 52.1712ZM137.561 74.5108C140.105 67.9403 141.326 58.0341 141.326 48.5321V27.4055H150.69V74.5108H137.561Z" fill="white"/>
</svg>
