<svg width="76" height="81" viewBox="0 0 76 81" fill="none" xmlns="http://www.w3.org/2000/svg">
<path d="M57.5421 80.1187C67.3323 80.1187 75.5241 72.1785 75.5241 62.7113C75.5241 54.262 70.2294 47.4416 61.2384 36.7528L57.1425 31.8665C52.1475 25.9622 47.7519 20.4651 47.7519 14.0518C47.7519 8.35116 50.7489 3.46486 55.4442 3.46486C61.5381 3.46486 66.5331 11.7105 68.8308 25.3514L70.2294 33.4953H70.8288L74.1255 1.6325L73.2264 1.4289L70.7289 8.45296C66.9327 2.75228 60.0396 0.818115 55.3443 0.818115C45.2544 0.818115 39.2604 10.2853 39.3603 19.7525C39.4602 27.4892 44.0556 34.0042 48.8508 39.7049L53.0466 44.693C62.7369 56.298 65.5341 61.3879 65.4342 68.6155C65.3343 72.5857 63.1365 77.0648 58.7409 77.0648C51.2484 77.0648 42.1575 63.5256 41.2584 50.1901L40.9587 45.6092H40.3593L32.4672 76.0468H19.4802V5.09363L26.673 2.24329V1.6325H0.898856V2.34508L8.19155 5.19543L7.99175 75.436L-0.000244141 78.3881V78.9989H40.0596L40.7589 71.7713C43.5561 76.1486 50.0496 80.1187 57.5421 80.1187Z" fill="white"/>
</svg>
